<mxfile host="65bd71144e">
    <diagram id="sogFBAgwD38nzf2OKn-C" name="Page-1">
        <mxGraphModel dx="783" dy="1443" grid="1" gridSize="10" guides="1" tooltips="1" connect="1" arrows="1" fold="1" page="1" pageScale="1" pageWidth="850" pageHeight="1100" math="0" shadow="0">
            <root>
                <mxCell id="0"/>
                <mxCell id="1" parent="0"/>
                <mxCell id="3" value="&amp;nbsp; &amp;nbsp;loop(){&lt;br&gt;&lt;br&gt;&amp;nbsp; &amp;nbsp;pro_function();&lt;br&gt;&amp;nbsp; &amp;nbsp;pro_uart();&lt;br&gt;&lt;br&gt;}&lt;br&gt;&lt;br&gt;&lt;br&gt;&lt;br&gt;&amp;nbsp; &amp;nbsp; pro_function(){&lt;br&gt;&amp;nbsp; &amp;nbsp;&amp;nbsp;&lt;br&gt;&amp;nbsp; &amp;nbsp;&amp;nbsp;&amp;nbsp;ReadKey()&lt;br&gt;&amp;nbsp;&amp;nbsp;&lt;br&gt;&amp;nbsp; &amp;nbsp;}&lt;br&gt;&lt;br&gt;&amp;nbsp;&amp;nbsp;&lt;span style=&quot;color: rgb(220 , 220 , 170) ; background-color: rgb(30 , 30 , 30) ; font-family: &amp;#34;consolas&amp;#34; , &amp;#34;courier new&amp;#34; , monospace ; font-size: 14px&quot;&gt;pro_uart(){&lt;br&gt;&amp;nbsp; &amp;nbsp;&amp;nbsp;&lt;br&gt;&amp;nbsp; &amp;nbsp;if(command_heater_acp[] is valid){&lt;/span&gt;&lt;br style=&quot;color: rgb(220 , 220 , 170) ; font-family: &amp;#34;consolas&amp;#34; , &amp;#34;courier new&amp;#34; , monospace ; font-size: 14px&quot;&gt;&lt;span style=&quot;color: rgb(220 , 220 , 170) ; font-family: &amp;#34;consolas&amp;#34; , &amp;#34;courier new&amp;#34; , monospace ; font-size: 14px ; background-color: rgb(30 , 30 , 30)&quot;&gt;&amp;nbsp; &lt;br&gt;&amp;nbsp; &amp;nbsp; &amp;nbsp;process_command();&lt;br&gt;&lt;/span&gt;&lt;span style=&quot;color: rgb(220 , 220 , 170) ; background-color: rgb(30 , 30 , 30) ; font-family: &amp;#34;consolas&amp;#34; , &amp;#34;courier new&amp;#34; , monospace ; font-size: 14px&quot;&gt;&lt;br&gt;&amp;nbsp; }&lt;br&gt;&lt;br&gt;if(tx_time===0){&lt;br&gt;&lt;br&gt;&amp;nbsp; tx_time=50;//500ms&lt;br&gt;&lt;br&gt;&amp;nbsp; if(Out_Led_Flag===1){&lt;br&gt;&amp;nbsp; &amp;nbsp; &amp;nbsp;&amp;nbsp;&lt;br&gt;&amp;nbsp; &amp;nbsp; &amp;nbsp;command_tx_acp[10]=&lt;/span&gt;&lt;span style=&quot;font-family: &amp;#34;consolas&amp;#34; , &amp;#34;courier new&amp;#34; , monospace ; font-size: 14px ; color: rgb(156 , 220 , 254)&quot;&gt;command_tx_acp&lt;/span&gt;&lt;span style=&quot;background-color: rgb(30 , 30 , 30) ; color: rgb(212 , 212 , 212) ; font-family: &amp;#34;consolas&amp;#34; , &amp;#34;courier new&amp;#34; , monospace ; font-size: 14px&quot;&gt;[&lt;/span&gt;&lt;span style=&quot;font-family: &amp;#34;consolas&amp;#34; , &amp;#34;courier new&amp;#34; , monospace ; font-size: 14px ; color: rgb(181 , 206 , 168)&quot;&gt;10&lt;/span&gt;&lt;span style=&quot;background-color: rgb(30 , 30 , 30) ; color: rgb(212 , 212 , 212) ; font-family: &amp;#34;consolas&amp;#34; , &amp;#34;courier new&amp;#34; , monospace ; font-size: 14px&quot;&gt;] | &lt;/span&gt;&lt;span style=&quot;font-family: &amp;#34;consolas&amp;#34; , &amp;#34;courier new&amp;#34; , monospace ; font-size: 14px ; color: rgb(181 , 206 , 168)&quot;&gt;0x01&lt;/span&gt;&lt;span style=&quot;background-color: rgb(30 , 30 , 30) ; color: rgb(220 , 220 , 170) ; font-family: &amp;#34;consolas&amp;#34; , &amp;#34;courier new&amp;#34; , monospace ; font-size: 14px&quot;&gt;;&lt;/span&gt;&lt;br&gt;&lt;span style=&quot;color: rgb(220 , 220 , 170) ; background-color: rgb(30 , 30 , 30) ; font-family: &amp;#34;consolas&amp;#34; , &amp;#34;courier new&amp;#34; , monospace ; font-size: 14px&quot;&gt;&lt;br&gt;&amp;nbsp; &amp;nbsp;}&lt;br&gt;}&lt;br&gt;}&lt;br&gt;&lt;br&gt;&amp;nbsp; &amp;nbsp; }&lt;/span&gt;" style="rounded=0;whiteSpace=wrap;html=1;align=left;" parent="1" vertex="1">
                    <mxGeometry x="70" y="-150" width="570" height="620" as="geometry"/>
                </mxCell>
                <mxCell id="9" value="&lt;div style=&quot;color: rgb(212 , 212 , 212) ; background-color: rgb(30 , 30 , 30) ; font-family: &amp;#34;consolas&amp;#34; , &amp;#34;courier new&amp;#34; , monospace ; font-size: 14px ; line-height: 19px&quot;&gt;If(n==1 || command_sw &amp;amp;&amp;amp; 0x80){&lt;br&gt;&amp;nbsp; &amp;nbsp;&amp;nbsp;&lt;br&gt;&amp;nbsp; &amp;nbsp; Out_Led_Flag=1;&lt;br&gt;&amp;nbsp;}else{&lt;br&gt;&amp;nbsp; &amp;nbsp;Out_Led_Flag=0;&lt;br&gt;}&lt;br&gt;&lt;br&gt;command_sw=0;&lt;/div&gt;" style="whiteSpace=wrap;html=1;aspect=fixed;align=left;" parent="1" vertex="1">
                    <mxGeometry x="650" width="190" height="190" as="geometry"/>
                </mxCell>
                <mxCell id="14" value="" style="endArrow=classic;html=1;exitX=1.016;exitY=0.344;exitDx=0;exitDy=0;exitPerimeter=0;" edge="1" parent="1" source="3">
                    <mxGeometry relative="1" as="geometry">
                        <mxPoint x="340" y="150" as="sourcePoint"/>
                        <mxPoint x="640" y="63" as="targetPoint"/>
                        <Array as="points">
                            <mxPoint x="140" y="50"/>
                        </Array>
                    </mxGeometry>
                </mxCell>
                <mxCell id="15" value="ReadKey()" style="edgeLabel;resizable=0;html=1;align=center;verticalAlign=middle;" connectable="0" vertex="1" parent="14">
                    <mxGeometry relative="1" as="geometry">
                        <mxPoint x="215" y="-3" as="offset"/>
                    </mxGeometry>
                </mxCell>
            </root>
        </mxGraphModel>
    </diagram>
</mxfile>